<?xml version="1.0" encoding="UTF-8" standalone="no"?>
<svg
   width="393.78769"
   height="50"
   viewBox="0 0 393.7877 50"
   fill="none"
   version="1.1"
   id="svg27"
   sodipodi:docname="logo-dark.svg"
   inkscape:version="1.2 (dc2aeda, 2022-05-15)"
   xmlns:inkscape="http://www.inkscape.org/namespaces/inkscape"
   xmlns:sodipodi="http://sodipodi.sourceforge.net/DTD/sodipodi-0.dtd"
   xmlns="http://www.w3.org/2000/svg"
   xmlns:svg="http://www.w3.org/2000/svg">
  <sodipodi:namedview
     id="namedview29"
     pagecolor="#ffffff"
     bordercolor="#000000"
     borderopacity="0.25"
     inkscape:showpageshadow="2"
     inkscape:pageopacity="0.0"
     inkscape:pagecheckerboard="0"
     inkscape:deskcolor="#d1d1d1"
     showgrid="false"
     inkscape:zoom="1.8674766"
     inkscape:cx="205.35733"
     inkscape:cy="17.135422"
     inkscape:window-width="1512"
     inkscape:window-height="726"
     inkscape:window-x="0"
     inkscape:window-y="38"
     inkscape:window-maximized="0"
     inkscape:current-layer="svg27" />
  <g
     clip-path="url(#clip0_12819_45787)"
     id="g20">
    <path
       d="m 52.0772,44.6299 -6.3553,0.0014 3.0028,5.3689 2.7746,-4.4372 z"
       fill="#654ad3"
       id="path2" />
    <path
       d="M 69.7742,5.36855 H 2.2514 C 1.00821,5.36855 0,6.37678 0,7.62135 V 25.283 c 1.36477,0 2.46998,1.1066 2.46998,2.47 0,1.3635 -1.10657,2.4701 -2.46998,2.4701 v 17.525 c 0,1.2432 1.00821,2.2514 2.2514,2.2514 H 48.7493 L 45.722,44.6306 69.7756,5.36719"
       fill="#aa8fff"
       id="path4" />
    <path
       d="m 45.7214,44.631 h 79.8026 c 1.244,0 2.252,-1.0082 2.252,-2.2514 V 24.7862 c -1.365,0 -2.47,-1.1066 -2.47,-2.47 0,-1.3634 1.106,-2.47 2.47,-2.47 V 2.25143 C 127.776,1.00822 126.768,0 125.524,0 H 73.062 Z"
       fill="#957ff4"
       id="path6" />
    <path
       d="m 25.1726,22.1055 h 7.9578 V 10.7363 H 4.46875 v 11.3692 h 7.95635 v 22.5266 h 12.7475 z"
       fill="#000000"
       id="path8" />
    <path
       d="M 47.3801,10.7363 H 34.8225 v 33.8958 h 10.8991 l 0.0013,-0.0014 1.6572,-2.705 z"
       fill="#000000"
       id="path10" />
    <path
       d="M 73.9864,21.5431 83.6669,5.87189 83.3567,5.36914 H 69.7746 L 64.6557,13.7273 62.8086,10.7368 H 48.6035 l 8.9797,14.5373 -8.5726,13.9894 h 14.0316 l 3.843,-6.2215 3.8416,6.2215 h 14.2051 z"
       fill="#000000"
       id="path12" />
    <path
       d="M 83.6679,5.87325 96.2555,26.2536 88.2185,39.2649 H 102.373 L 123.312,5.36914 H 109.105 L 103.614,14.2587 98.1231,5.36914 H 83.978 83.3564 Z"
       fill="#000000"
       id="path14" />
  </g>
  <defs
     id="defs25">
    <clipPath
       id="clip0_12819_45787">
      <rect
         width="127.778"
         height="50"
         fill="#ffffff"
         id="rect22"
         x="0"
         y="0" />
    </clipPath>
  </defs>
  <text
     xml:space="preserve"
     style="font-style:normal;font-variant:normal;font-weight:normal;font-stretch:normal;font-size:45.3333px;font-family:'Arial Black';-inkscape-font-specification:'Arial Black, Normal';font-variant-ligatures:normal;font-variant-caps:normal;font-variant-numeric:normal;font-variant-east-asian:normal;letter-spacing:-1.5px;white-space:pre;inline-size:609.221;display:inline;opacity:0.9;fill:#000000"
     x="125.84746"
     y="43.85593"
     id="text366"
     transform="translate(-7.237173,-3.890301)"><tspan
       x="125.84746"
       y="43.85593"
       id="tspan1497"><tspan
         style="font-weight:900;font-size:40px;-inkscape-font-specification:'Arial Black, Heavy';fill:#f2f2f2"
         id="tspan1491">connect</tspan><tspan
         style="opacity:0.98;fill:#f2f2f2"
         id="tspan1493"> </tspan><tspan
         style="font-weight:900;font-size:38.6667px;-inkscape-font-specification:'Arial Black, Heavy';fill:#f2f2f2"
         id="tspan1495">API</tspan></tspan></text>
</svg>
