<svg width="128" height="50" viewBox="0 0 128 50" fill="none" xmlns="http://www.w3.org/2000/svg">
<g clip-path="url(#clip0_12819_45787)">
<path d="M52.0772 44.6299L45.7219 44.6313L48.7247 50.0002L51.4993 45.563L52.0772 44.6299Z" fill="#654AD3"/>
<path d="M69.7742 5.36855H2.2514C1.00821 5.36855 0 6.37678 0 7.62135V25.283C1.36477 25.283 2.46998 26.3896 2.46998 27.753C2.46998 29.1165 1.36341 30.2231 0 30.2231V47.7481C0 48.9913 1.00821 49.9995 2.2514 49.9995H48.7493L45.722 44.6306L69.7756 5.36719" fill="#AA8FFF"/>
<path d="M45.7214 44.631H125.524C126.768 44.631 127.776 43.6228 127.776 42.3796V24.7862C126.411 24.7862 125.306 23.6796 125.306 22.3162C125.306 20.9528 126.412 19.8462 127.776 19.8462V2.25143C127.776 1.00822 126.768 0 125.524 0H73.062L45.7214 44.631Z" fill="#957FF4"/>
<path d="M25.1726 22.1055H33.1304V10.7363H4.46875V22.1055H12.4251V44.6321H25.1726V22.1055Z" fill="black"/>
<path d="M47.3801 10.7363H34.8225V44.6321H45.7216L45.7229 44.6307L47.3801 41.9257V10.7363Z" fill="black"/>
<path d="M73.9864 21.5431L83.6669 5.87189L83.3567 5.36914H69.7746L64.6557 13.7273L62.8086 10.7368H48.6035L57.5832 25.2741L49.0106 39.2635H63.0422L66.8852 33.042L70.7268 39.2635H84.9319L73.9864 21.5431Z" fill="black"/>
<path d="M83.6679 5.87325L96.2555 26.2536L88.2185 39.2649H102.373L123.312 5.36914H109.105L103.614 14.2587L98.1231 5.36914H83.978H83.3564L83.6679 5.87325Z" fill="black"/>
<path d="M120.831 32.4485C120.249 32.1343 119.652 31.9785 119.04 31.9785C118.428 31.9785 117.831 32.1356 117.249 32.4485C116.667 32.7627 116.212 33.2108 115.885 33.7955C115.559 34.3802 115.395 34.9895 115.395 35.6234C115.395 36.2573 115.556 36.8543 115.877 37.4336C116.2 38.0128 116.649 38.4623 117.227 38.7833C117.805 39.103 118.409 39.2629 119.04 39.2629C119.671 39.2629 120.275 39.103 120.853 38.7833C121.431 38.4637 121.88 38.0128 122.2 37.4336C122.519 36.8543 122.681 36.2505 122.681 35.6234C122.681 34.9964 122.518 34.3802 122.193 33.7955C121.868 33.2108 121.414 32.7627 120.831 32.4485ZM121.675 37.1317C121.407 37.6125 121.033 37.9882 120.551 38.256C120.069 38.5251 119.564 38.659 119.04 38.659C118.515 38.659 118.011 38.5251 117.529 38.256C117.047 37.9869 116.67 37.6125 116.402 37.1317C116.133 36.6508 115.999 36.148 115.999 35.6234C115.999 35.0988 116.135 34.5879 116.409 34.1002C116.682 33.6124 117.062 33.2381 117.545 32.9758C118.029 32.7135 118.528 32.5824 119.04 32.5824C119.552 32.5824 120.045 32.7135 120.532 32.9758C121.018 33.2381 121.396 33.6124 121.668 34.1002C121.94 34.5879 122.077 35.0947 122.077 35.6234C122.077 36.1521 121.943 36.6508 121.677 37.1317H121.675Z" fill="black"/>
<path d="M119.774 36.8932C119.556 37.0599 119.301 37.1446 119.012 37.1446C118.651 37.1446 118.357 37.0189 118.131 36.7661C117.904 36.5134 117.791 36.1404 117.791 35.6486C117.791 35.1568 117.911 34.7784 118.15 34.5147C118.389 34.2511 118.695 34.1185 119.065 34.1185C119.319 34.1185 119.541 34.1827 119.729 34.3084C119.918 34.4355 120.06 34.6185 120.157 34.8563L120.732 34.7155C120.629 34.3644 120.435 34.0871 120.153 33.8822C119.87 33.6773 119.513 33.5762 119.086 33.5762C118.703 33.5762 118.362 33.6554 118.065 33.8152C117.767 33.9751 117.538 34.2114 117.377 34.5243C117.215 34.8385 117.135 35.2074 117.135 35.6322C117.135 36.2825 117.312 36.7907 117.666 37.1582C118.02 37.5257 118.48 37.7088 119.047 37.7088C119.495 37.7088 119.875 37.5886 120.189 37.3495C120.504 37.1091 120.709 36.788 120.806 36.3864L120.211 36.2129C120.14 36.4997 119.995 36.7265 119.777 36.8932H119.774Z" fill="black"/>
</g>
<defs>
<clipPath id="clip0_12819_45787">
<rect width="127.778" height="50" fill="white"/>
</clipPath>
</defs>
</svg>
