<?xml version="1.0" encoding="UTF-8" standalone="no"?>
<svg
   width="252.37318"
   height="50"
   viewBox="0 0 252.37319 50"
   fill="none"
   version="1.1"
   id="svg27"
   sodipodi:docname="logo-darkl.svg"
   inkscape:version="1.2 (dc2aeda, 2022-05-15)"
   xmlns:inkscape="http://www.inkscape.org/namespaces/inkscape"
   xmlns:sodipodi="http://sodipodi.sourceforge.net/DTD/sodipodi-0.dtd"
   xmlns="http://www.w3.org/2000/svg"
   xmlns:svg="http://www.w3.org/2000/svg">
  <sodipodi:namedview
     id="namedview29"
     pagecolor="#ffffff"
     bordercolor="#000000"
     borderopacity="0.25"
     inkscape:showpageshadow="2"
     inkscape:pageopacity="0.0"
     inkscape:pagecheckerboard="0"
     inkscape:deskcolor="#d1d1d1"
     showgrid="false"
     inkscape:zoom="4.3427785"
     inkscape:cx="137.58473"
     inkscape:cy="37.073039"
     inkscape:window-width="1512"
     inkscape:window-height="726"
     inkscape:window-x="0"
     inkscape:window-y="38"
     inkscape:window-maximized="0"
     inkscape:current-layer="svg27" />
  <g
     clip-path="url(#clip0_12819_45787)"
     id="g20">
    <path
       d="m 52.0772,44.6299 -6.3553,0.0014 3.0028,5.3689 2.7746,-4.4372 z"
       fill="#654ad3"
       id="path2" />
    <path
       d="M 69.7742,5.36855 H 2.2514 C 1.00821,5.36855 0,6.37678 0,7.62135 V 25.283 c 1.36477,0 2.46998,1.1066 2.46998,2.47 0,1.3635 -1.10657,2.4701 -2.46998,2.4701 v 17.525 c 0,1.2432 1.00821,2.2514 2.2514,2.2514 H 48.7493 L 45.722,44.6306 69.7756,5.36719"
       fill="#aa8fff"
       id="path4" />
    <path
       d="m 45.7214,44.631 h 79.8026 c 1.244,0 2.252,-1.0082 2.252,-2.2514 V 24.7862 c -1.365,0 -2.47,-1.1066 -2.47,-2.47 0,-1.3634 1.106,-2.47 2.47,-2.47 V 2.25143 C 127.776,1.00822 126.768,0 125.524,0 H 73.062 Z"
       fill="#957ff4"
       id="path6" />
    <path
       d="m 25.1726,22.1055 h 7.9578 V 10.7363 H 4.46875 v 11.3692 h 7.95635 v 22.5266 h 12.7475 z"
       fill="#000000"
       id="path8" />
    <path
       d="M 47.3801,10.7363 H 34.8225 v 33.8958 h 10.8991 l 0.0013,-0.0014 1.6572,-2.705 z"
       fill="#000000"
       id="path10" />
    <path
       d="M 73.9864,21.5431 83.6669,5.87189 83.3567,5.36914 H 69.7746 L 64.6557,13.7273 62.8086,10.7368 H 48.6035 l 8.9797,14.5373 -8.5726,13.9894 h 14.0316 l 3.843,-6.2215 3.8416,6.2215 h 14.2051 z"
       fill="#000000"
       id="path12" />
    <path
       d="M 83.6679,5.87325 96.2555,26.2536 88.2185,39.2649 H 102.373 L 123.312,5.36914 H 109.105 L 103.614,14.2587 98.1231,5.36914 H 83.978 83.3564 Z"
       fill="#000000"
       id="path14" />
    <path
       d="m 120.831,32.4485 c -0.582,-0.3142 -1.179,-0.47 -1.791,-0.47 -0.612,0 -1.209,0.1571 -1.791,0.47 -0.582,0.3142 -1.037,0.7623 -1.364,1.347 -0.326,0.5847 -0.49,1.194 -0.49,1.8279 0,0.6339 0.161,1.2309 0.482,1.8102 0.323,0.5792 0.772,1.0287 1.35,1.3497 0.578,0.3197 1.182,0.4796 1.813,0.4796 0.631,0 1.235,-0.1599 1.813,-0.4796 0.578,-0.3196 1.027,-0.7705 1.347,-1.3497 0.319,-0.5793 0.481,-1.1831 0.481,-1.8102 0,-0.627 -0.163,-1.2432 -0.488,-1.8279 -0.325,-0.5847 -0.779,-1.0328 -1.362,-1.347 z m 0.844,4.6832 c -0.268,0.4808 -0.642,0.8565 -1.124,1.1243 -0.482,0.2691 -0.987,0.403 -1.511,0.403 -0.525,0 -1.029,-0.1339 -1.511,-0.403 -0.482,-0.2691 -0.859,-0.6435 -1.127,-1.1243 -0.269,-0.4809 -0.403,-0.9837 -0.403,-1.5083 0,-0.5246 0.136,-1.0355 0.41,-1.5232 0.273,-0.4878 0.653,-0.8621 1.136,-1.1244 0.484,-0.2623 0.983,-0.3934 1.495,-0.3934 0.512,0 1.005,0.1311 1.492,0.3934 0.486,0.2623 0.864,0.6366 1.136,1.1244 0.272,0.4877 0.409,0.9945 0.409,1.5232 0,0.5287 -0.134,1.0274 -0.4,1.5083 z"
       fill="#000000"
       id="path16" />
    <path
       d="m 119.774,36.8932 c -0.218,0.1667 -0.473,0.2514 -0.762,0.2514 -0.361,0 -0.655,-0.1257 -0.881,-0.3785 -0.227,-0.2527 -0.34,-0.6257 -0.34,-1.1175 0,-0.4918 0.12,-0.8702 0.359,-1.1339 0.239,-0.2636 0.545,-0.3962 0.915,-0.3962 0.254,0 0.476,0.0642 0.664,0.1899 0.189,0.1271 0.331,0.3101 0.428,0.5479 l 0.575,-0.1408 c -0.103,-0.3511 -0.297,-0.6284 -0.579,-0.8333 -0.283,-0.2049 -0.64,-0.306 -1.067,-0.306 -0.383,0 -0.724,0.0792 -1.021,0.239 -0.298,0.1599 -0.527,0.3962 -0.688,0.7091 -0.162,0.3142 -0.242,0.6831 -0.242,1.1079 0,0.6503 0.177,1.1585 0.531,1.526 0.354,0.3675 0.814,0.5506 1.381,0.5506 0.448,0 0.828,-0.1202 1.142,-0.3593 0.315,-0.2404 0.52,-0.5615 0.617,-0.9631 l -0.595,-0.1735 c -0.071,0.2868 -0.216,0.5136 -0.434,0.6803 z"
       fill="#000000"
       id="path18" />
  </g>
  <defs
     id="defs25">
    <clipPath
       id="clip0_12819_45787">
      <rect
         width="127.778"
         height="50"
         fill="#ffffff"
         id="rect22"
         x="0"
         y="0" />
    </clipPath>
  </defs>
  <text
     xml:space="preserve"
     style="font-style:normal;font-variant:normal;font-weight:normal;font-stretch:normal;font-size:16px;font-family:'Arial Black';-inkscape-font-specification:'Arial Black, Normal';font-variant-ligatures:normal;font-variant-caps:normal;font-variant-numeric:normal;font-variant-east-asian:normal;white-space:pre;inline-size:129.964;display:inline;fill:#d92214"
     x="125.84746"
     y="43.85593"
     id="text366"
     transform="translate(2.072406)"><tspan
       x="125.84746"
       y="43.85593"
       id="tspan601"><tspan
         style="fill:#ffffff"
         id="tspan599">API Reference</tspan></tspan></text>
</svg>
