<svg width="45" height="48" viewBox="0 0 45 48" fill="none" xmlns="http://www.w3.org/2000/svg">
<path d="M9.83295 42.6641L3.8501 42.6653L6.6769 47.7172L9.28893 43.5408L9.83295 42.6641Z" fill="#654AD3"/>
<path d="M26.4929 5.74085H2.62581C1.45548 5.74085 0.506348 6.68953 0.506348 7.85931V24.4779C1.79114 24.4779 2.83158 25.5191 2.83158 26.802C2.83158 28.0849 1.78986 29.1261 0.506348 29.1261V45.6161C0.506348 46.7859 1.45548 47.7346 2.62581 47.7346H6.70011L3.85016 42.6827L26.4929 5.73828" fill="#AA8FFF"/>
<path d="M3.8501 42.6773H42.8312C44.0015 42.6773 44.9507 41.7286 44.9507 40.5589V24.0046C43.6659 24.0046 42.6254 22.9633 42.6254 21.6804C42.6254 20.3975 43.6672 19.3563 44.9507 19.3563V2.80205C44.9507 1.63227 44.0015 0.683594 42.8312 0.683594H29.5897L3.85138 42.6786L3.8501 42.6773Z" fill="#957FF4"/>
<path d="M30.4579 20.9569L39.863 5.73828H26.4929L21.674 13.6028L19.9352 10.7889H6.5625L15.0159 24.4676L6.94575 37.6308H20.1551L23.7728 31.7767L27.3893 37.6308H40.762L30.4579 20.9569Z" fill="black"/>
</svg>
